<svg width="512" height="512" viewBox="0 0 512 512" fill="none" xmlns="http://www.w3.org/2000/svg">
<circle cx="256" cy="256" r="256" fill="#82C3D2"/>
<path d="M123.774 475.954C122.564 472.327 117.866 462.594 117.71 462.27C116.422 459.376 115.744 456.176 115.744 453.012C115.744 448.587 118.311 444.714 121.988 443.591C124.978 442.666 128.055 443.165 130.442 444.93C132.823 446.689 134.189 449.397 134.189 452.351C134.189 456.05 131.817 457.274 130.797 457.629C129.218 458.181 127.708 457.863 127.221 457.245C126.81 456.723 126.852 455.293 128.326 452.976C129.239 451.547 128.821 449.643 127.389 448.731C125.954 447.83 124.06 448.251 123.144 449.674C119.217 455.829 121.313 459.683 122.396 461.058C124.581 463.814 128.655 464.761 132.584 463.482C131.293 468.958 130.104 474.134 135.088 479.119C135.688 479.719 136.475 480.019 137.262 480.019C138.048 480.019 138.835 479.719 139.436 479.119C140.637 477.918 140.637 475.973 139.436 474.772C136.974 472.31 137.295 470.287 138.592 464.799C139.37 461.509 140.336 457.408 140.336 452.352C140.336 447.534 138.027 442.946 134.168 440.055C138.027 437.164 140.336 432.577 140.336 427.758C140.336 422.702 139.369 418.602 138.592 415.311C137.295 409.823 136.974 407.8 139.436 405.338C140.637 404.137 140.637 402.192 139.436 400.991C138.235 399.79 136.29 399.79 135.089 400.991C130.104 405.976 131.293 411.151 132.585 416.628C128.656 415.344 124.582 416.29 122.397 419.052C121.313 420.427 119.218 424.282 123.145 430.436C124.058 431.865 125.946 432.285 127.39 431.379C128.822 430.466 129.239 428.563 128.327 427.134C126.853 424.816 126.811 423.387 127.222 422.865C127.708 422.247 129.218 421.928 130.798 422.481C131.819 422.835 134.19 424.06 134.19 427.759C134.19 430.713 132.824 433.421 130.443 435.18C128.056 436.945 124.967 437.45 121.989 436.519C118.311 435.396 115.745 431.523 115.745 427.098C115.745 423.934 116.423 420.733 117.711 417.839L137.843 372.543C139.497 368.82 140.338 364.864 140.338 360.787C140.338 355.542 137.953 350.752 134.2 347.83C137.953 344.907 140.338 340.117 140.338 334.873C140.338 330.796 139.497 326.839 137.843 323.117L117.711 277.821C116.423 274.927 115.745 271.727 115.745 268.563C115.745 264.138 118.312 260.265 121.989 259.142C124.979 258.217 128.056 258.716 130.443 260.481C132.824 262.24 134.19 264.948 134.19 267.902C134.19 271.6 131.818 272.825 130.798 273.18C129.219 273.738 127.709 273.414 127.222 272.796C126.811 272.274 126.853 270.845 128.327 268.527C129.24 267.098 128.822 265.195 127.39 264.282C125.955 263.381 124.061 263.802 123.145 265.225C119.218 271.379 121.314 275.234 122.397 276.609C124.582 279.365 128.656 280.312 132.585 279.033C131.294 284.509 130.105 289.684 135.089 294.669C135.689 295.27 136.476 295.57 137.263 295.57C138.049 295.57 138.836 295.27 139.437 294.669C140.638 293.468 140.638 291.523 139.437 290.322C136.975 287.86 137.296 285.837 138.593 280.349C139.371 277.059 140.337 272.958 140.337 267.902C140.337 264.537 139.154 261.321 137.164 258.679H137.263C138.962 258.679 140.337 257.304 140.337 255.605C140.337 253.906 138.962 252.531 137.263 252.531H137.164C139.154 249.889 140.337 246.673 140.337 243.308C140.337 238.252 139.37 234.152 138.593 230.861C137.296 225.373 136.975 223.35 139.437 220.888C140.638 219.687 140.638 217.742 139.437 216.541C138.236 215.34 136.291 215.34 135.09 216.541C130.105 221.526 131.294 226.702 132.586 232.178C128.657 230.899 124.583 231.846 122.398 234.602C121.314 235.977 119.219 239.832 123.146 245.986C124.059 247.415 125.947 247.829 127.391 246.929C128.823 246.016 129.24 244.113 128.328 242.684C126.854 240.366 126.812 238.938 127.223 238.415C127.709 237.797 129.219 237.478 130.799 238.031C131.82 238.385 134.191 239.61 134.191 243.309C134.191 246.263 132.825 248.971 130.444 250.73C128.057 252.495 124.968 252.994 121.99 252.069C118.312 250.946 115.746 247.073 115.746 242.648C115.746 239.484 116.424 236.283 117.712 233.39L137.844 188.094C139.498 184.371 140.339 180.415 140.339 176.338C140.339 171.093 137.954 166.303 134.201 163.381C137.954 160.458 140.339 155.668 140.339 150.424C140.339 146.347 139.498 142.39 137.844 138.668L117.709 93.3683C116.421 90.4743 115.743 87.2743 115.743 84.1093C115.743 79.6843 118.31 75.8113 121.987 74.6883C124.977 73.7633 128.054 74.2623 130.441 76.0273C132.822 77.7863 134.188 80.4943 134.188 83.4483C134.188 87.1473 131.816 88.3723 130.796 88.7263C129.217 89.2783 127.707 88.9543 127.22 88.3423C126.809 87.8203 126.851 86.3913 128.325 84.0733C129.238 82.6443 128.82 80.7413 127.388 79.8283C125.953 78.9273 124.059 79.3423 123.143 80.7713C119.216 86.9253 121.312 90.7803 122.395 92.1553C124.58 94.9113 128.654 95.8583 132.583 94.5793C131.292 100.055 130.103 105.231 135.087 110.216C135.687 110.816 136.474 111.117 137.261 111.117C138.047 111.117 138.834 110.817 139.435 110.216C140.636 109.015 140.636 107.07 139.435 105.869C136.973 103.407 137.294 101.384 138.591 95.8963C139.369 92.6063 140.335 88.5053 140.335 83.4493C140.335 80.0843 139.152 76.8683 137.162 74.2263H137.261C138.96 74.2263 140.335 72.8513 140.335 71.1523C140.335 69.4533 138.96 68.0783 137.261 68.0783H137.162C139.152 65.4363 140.335 62.2203 140.335 58.8563C140.335 53.8003 139.368 49.6993 138.591 46.4093C137.294 40.9213 136.973 38.8983 139.435 36.4363C140.636 35.2353 140.636 33.2903 139.435 32.0893C138.234 30.8883 136.289 30.8883 135.088 32.0893C130.103 37.0743 131.292 42.2493 132.584 47.7263C128.655 46.4423 124.581 47.3943 122.396 50.1503C121.312 51.5253 119.217 55.3803 123.144 61.5343C124.057 62.9633 125.945 63.3833 127.389 62.4773C128.821 61.5643 129.238 59.6613 128.326 58.2323C126.852 55.9143 126.81 54.4853 127.221 53.9633C127.707 53.3453 129.217 53.0203 130.797 53.5793C131.818 53.9333 134.189 55.1583 134.189 58.8573C134.189 61.8113 132.823 64.5193 130.442 66.2783C128.055 68.0433 124.966 68.5423 121.988 67.6173C118.31 66.4943 115.744 62.6213 115.744 58.1963C115.744 55.0323 116.422 51.8323 117.668 49.0283C117.866 48.6143 122.565 38.8813 123.774 35.2543C126.167 28.0793 123.735 24.4703 122.075 22.9633C119.853 20.9403 116.608 20.4353 113.813 21.6603C113.389 21.8483 113.038 22.1213 112.669 22.3753C112.487 22.2503 112.308 22.1193 112.124 21.9973C108.117 25.1363 104.334 28.5453 100.792 32.1913C100.952 33.1343 101.195 34.1463 101.564 35.2543C102.774 38.8803 107.472 48.6133 107.628 48.9383C108.916 51.8323 109.594 55.0323 109.594 58.1973C109.594 62.6223 107.027 66.4953 103.35 67.6183C100.363 68.5433 97.2828 68.0503 94.8958 66.2793C92.5148 64.5203 91.1488 61.8123 91.1488 58.8583C91.1488 55.1593 93.5208 53.9343 94.5408 53.5803C96.1258 53.0223 97.6268 53.3463 98.1168 53.9643C98.5278 54.4863 98.4858 55.9153 97.0118 58.2333C96.0988 59.6623 96.5168 61.5653 97.9488 62.4783C99.3928 63.3913 101.287 62.9643 102.194 61.5353C106.121 55.3813 104.025 51.5263 102.942 50.1513C100.757 47.3953 96.6828 46.4433 92.7538 47.7273C93.3748 45.0933 93.9648 42.5293 93.8628 40.0233C90.8828 43.7233 88.1308 47.6153 85.6338 51.6803C85.2688 53.8263 85.0008 56.2083 85.0008 58.8573C85.0008 62.2213 86.1828 65.4383 88.1738 68.0793H88.0748C86.3758 68.0793 85.0008 69.4543 85.0008 71.1533C85.0008 72.8523 86.3758 74.2273 88.0748 74.2273H88.1738C86.1838 76.8693 85.0008 80.0853 85.0008 83.4503C85.0008 88.5063 85.9678 92.6073 86.7448 95.8973C88.0418 101.385 88.3627 103.408 85.9007 105.87C84.6998 107.071 84.6998 109.016 85.9007 110.217C86.5008 110.817 87.2878 111.118 88.0748 111.118C88.8618 111.118 89.6478 110.818 90.2488 110.217C95.2338 105.232 94.0448 100.056 92.7538 94.5803C96.6828 95.8593 100.757 94.9123 102.942 92.1563C104.026 90.7813 106.121 86.9263 102.194 80.7723C101.284 79.3433 99.3838 78.9173 97.9488 79.8293C96.5168 80.7423 96.0998 82.6453 97.0118 84.0743C98.4858 86.3923 98.5278 87.8213 98.1168 88.3433C97.6278 88.9563 96.1268 89.2803 94.5408 88.7273C93.5198 88.3733 91.1488 87.1483 91.1488 83.4493C91.1488 80.4953 92.5148 77.7873 94.8958 76.0283C97.2828 74.2633 100.369 73.7583 103.35 74.6893C107.028 75.8123 109.594 79.6843 109.594 84.1103C109.594 87.2743 108.915 90.4753 107.628 93.3693L87.4958 138.664C85.8418 142.387 85.0008 146.343 85.0008 150.42C85.0008 155.665 87.3858 160.455 91.1388 163.377C87.3858 166.3 85.0008 171.089 85.0008 176.334C85.0008 180.411 85.8418 184.368 87.4958 188.09L107.628 233.386C108.916 236.28 109.594 239.48 109.594 242.644C109.594 247.069 107.027 250.942 103.35 252.065C100.363 252.996 97.2828 252.497 94.8958 250.726C92.5148 248.967 91.1488 246.259 91.1488 243.305C91.1488 239.606 93.5208 238.381 94.5408 238.027C96.1258 237.475 97.6268 237.793 98.1168 238.411C98.5278 238.934 98.4858 240.362 97.0118 242.68C96.0988 244.109 96.5168 246.012 97.9488 246.925C99.3928 247.838 101.287 247.417 102.194 245.982C106.121 239.828 104.025 235.973 102.942 234.598C100.757 231.842 96.6828 230.895 92.7538 232.174C94.0448 226.698 95.2338 221.522 90.2488 216.537C89.0478 215.336 87.1028 215.336 85.9018 216.537C84.7008 217.738 84.7008 219.683 85.9018 220.884C88.3638 223.346 88.0428 225.369 86.7458 230.857C85.9678 234.147 85.0018 238.248 85.0018 243.304C85.0018 246.669 86.1838 249.885 88.1748 252.527H88.0758C86.3768 252.527 85.0018 253.902 85.0018 255.601C85.0018 257.3 86.3768 258.675 88.0758 258.675H88.1748C86.1848 261.317 85.0018 264.533 85.0018 267.898C85.0018 272.953 85.9688 277.054 86.7458 280.345C88.0428 285.833 88.3638 287.856 85.9018 290.318C84.7008 291.519 84.7008 293.464 85.9018 294.665C86.5018 295.266 87.2888 295.566 88.0758 295.566C88.8628 295.566 89.6488 295.266 90.2498 294.665C95.2348 289.68 94.0458 284.504 92.7548 279.029C96.6838 280.308 100.758 279.361 102.943 276.605C104.027 275.23 106.122 271.375 102.195 265.221C101.285 263.792 99.3848 263.366 97.9498 264.278C96.5178 265.191 96.1008 267.094 97.0128 268.523C98.4868 270.841 98.5288 272.27 98.1178 272.792C97.6288 273.41 96.1278 273.735 94.5418 273.176C93.5208 272.822 91.1498 271.597 91.1498 267.898C91.1498 264.944 92.5158 262.236 94.8968 260.477C97.2838 258.712 100.37 258.207 103.351 259.138C107.029 260.261 109.595 264.134 109.595 268.559C109.595 271.723 108.916 274.924 107.629 277.817L87.4968 323.113C85.8428 326.836 85.0018 330.792 85.0018 334.869C85.0018 340.114 87.3868 344.904 91.1398 347.826C87.3868 350.749 85.0018 355.538 85.0018 360.783C85.0018 364.86 85.8428 368.817 87.4968 372.539L107.629 417.835C108.917 420.729 109.595 423.929 109.595 427.094C109.595 431.519 107.028 435.392 103.351 436.515C100.364 437.446 97.2838 436.941 94.8968 435.176C92.5158 433.417 91.1498 430.709 91.1498 427.755C91.1498 424.057 93.5218 422.831 94.5418 422.477C96.1268 421.925 97.6278 422.243 98.1178 422.861C98.5288 423.383 98.4868 424.812 97.0128 427.13C96.0998 428.559 96.5178 430.462 97.9498 431.375C99.3938 432.288 101.288 431.867 102.195 430.432C106.122 424.277 104.026 420.423 102.943 419.048C100.758 416.286 96.6838 415.34 92.7548 416.624C94.0458 411.147 95.2348 405.972 90.2498 400.987C89.0488 399.786 87.1038 399.786 85.9028 400.987C84.7018 402.188 84.7018 404.133 85.9028 405.334C88.3648 407.796 88.0438 409.819 86.7468 415.307C85.9688 418.597 85.0028 422.698 85.0028 427.754C85.0028 432.572 87.3118 437.16 91.1708 440.051C87.3118 442.942 85.0028 447.53 85.0028 452.348C85.0028 453.619 85.0638 454.829 85.1678 455.982C87.7438 460.252 90.5998 464.333 93.7048 468.207C93.4968 466.654 93.1318 465.079 92.7548 463.479C96.6838 464.758 100.758 463.811 102.943 461.055C104.027 459.68 106.122 455.826 102.195 449.671C101.285 448.242 99.3848 447.822 97.9498 448.728C96.5178 449.641 96.1008 451.544 97.0128 452.973C98.4868 455.29 98.5288 456.72 98.1178 457.242C97.6288 457.86 96.1278 458.179 94.5418 457.626C93.5208 457.272 91.1498 456.047 91.1498 452.348C91.1498 449.394 92.5158 446.686 94.8968 444.927C97.2838 443.162 100.37 442.663 103.351 443.588C107.029 444.711 109.595 448.584 109.595 453.009C109.595 456.173 108.916 459.374 107.671 462.177C107.473 462.591 102.775 472.324 101.565 475.951C101.471 476.233 101.397 476.501 101.317 476.772C103.066 478.548 104.873 480.265 106.736 481.922C106.659 480.949 106.819 479.623 107.395 477.896C108.19 475.518 111.067 469.332 112.669 465.973C114.236 469.253 117.143 475.502 117.944 477.896C119.037 481.174 118.655 483.042 117.935 483.696C117.452 484.135 116.743 484.116 116.299 483.918C115.744 483.672 115.744 483.281 115.744 483.089C115.744 481.39 114.369 480.015 112.67 480.015C110.971 480.015 109.596 481.39 109.596 483.089C109.596 483.281 109.596 483.671 109.042 483.917C111.673 486.132 114.407 488.228 117.237 490.198C119.005 490.134 120.727 489.468 122.076 488.241C123.735 486.737 126.166 483.129 123.774 475.954ZM107.394 33.3073C106.301 30.0293 106.682 28.1613 107.403 27.5073C107.874 27.0633 108.589 27.0813 109.039 27.2853C109.594 27.5313 109.594 27.9213 109.594 28.1143C109.594 29.8133 110.969 31.1883 112.668 31.1883C114.367 31.1883 115.742 29.8133 115.742 28.1143C115.742 27.9223 115.742 27.5323 116.297 27.2853C116.741 27.0813 117.45 27.0633 117.933 27.5073C118.654 28.1623 119.035 30.0293 117.942 33.3073C117.147 35.6853 114.27 41.8713 112.668 45.2303C111.102 41.9503 108.195 35.7013 107.394 33.3073ZM115.733 71.1523C114.569 72.0583 113.538 73.1413 112.669 74.3663C111.8 73.1413 110.769 72.0583 109.605 71.1523C110.769 70.2463 111.8 69.1633 112.669 67.9383C113.537 69.1633 114.569 70.2463 115.733 71.1523ZM93.1158 141.162L112.669 97.1693L132.222 141.162C133.51 144.056 134.188 147.256 134.188 150.421C134.188 154.846 131.621 158.719 127.944 159.842C124.96 160.773 121.874 160.268 119.49 158.503C117.109 156.744 115.743 154.036 115.743 151.082C115.743 147.383 118.115 146.159 119.135 145.804C120.717 145.252 122.224 145.57 122.711 146.188C123.122 146.71 123.08 148.139 121.606 150.457C120.693 151.886 121.111 153.789 122.543 154.702C123.987 155.609 125.881 155.194 126.788 153.759C130.715 147.605 128.619 143.75 127.535 142.375C125.307 139.565 121.123 138.604 117.118 139.997C116.661 140.155 116.2 140.351 115.743 140.583V132.807C115.744 132.809 115.748 132.812 115.748 132.812C115.842 134.43 117.181 135.709 118.817 135.709C120.516 135.709 121.891 134.334 121.891 132.635C121.891 130.63 120.489 127.152 115.743 126.074V120.339C115.743 118.64 114.368 117.265 112.669 117.265C110.97 117.265 109.595 118.64 109.595 120.339V126.074C104.849 127.152 103.447 130.63 103.447 132.635C103.447 134.334 104.819 135.811 106.515 135.811C108.214 135.811 109.583 134.538 109.583 132.839C109.584 132.833 109.593 132.827 109.595 132.821V140.582C109.138 140.35 108.677 140.154 108.22 139.996C104.215 138.603 100.027 139.564 97.8028 142.374C96.7188 143.749 94.6238 147.604 98.5508 153.758C99.4638 155.187 101.361 155.601 102.796 154.701C104.228 153.788 104.645 151.885 103.733 150.456C102.259 148.138 102.217 146.709 102.628 146.187C103.111 145.569 104.619 145.25 106.204 145.803C107.225 146.157 109.596 147.382 109.596 151.081C109.596 154.035 108.23 156.743 105.849 158.502C103.462 160.267 100.379 160.772 97.3948 159.841C93.7168 158.718 91.1508 154.845 91.1508 150.42C91.1488 147.256 91.8278 144.056 93.1158 141.162ZM115.763 163.378C114.549 164.288 113.552 165.402 112.669 166.602C111.786 165.402 110.788 164.287 109.575 163.378C110.789 162.468 111.786 161.354 112.669 160.154C113.551 161.353 114.549 162.468 115.763 163.378ZM93.1158 185.593C91.8278 182.699 91.1498 179.499 91.1498 176.334C91.1498 171.909 93.7168 168.036 97.3938 166.913C100.381 165.989 103.464 166.487 105.848 168.252C108.229 170.011 109.595 172.719 109.595 175.673C109.595 179.372 107.223 180.597 106.203 180.951C104.618 181.509 103.111 181.185 102.627 180.567C102.216 180.045 102.258 178.616 103.732 176.298C104.645 174.869 104.227 172.966 102.795 172.053C101.36 171.146 99.4658 171.567 98.5498 172.996C94.6228 179.151 96.7188 183.005 97.8018 184.38C100.027 187.19 104.215 188.151 108.219 186.758C108.676 186.6 109.137 186.404 109.594 186.172V193.947L109.588 193.939C109.495 192.324 108.156 191.045 106.52 191.045C104.821 191.045 103.446 192.42 103.446 194.119C103.446 196.125 104.848 199.602 109.594 200.68V206.415C109.594 208.114 110.969 209.489 112.668 209.489C114.367 209.489 115.742 208.114 115.742 206.415V200.68C120.488 199.602 121.89 196.124 121.89 194.119C121.89 192.42 120.518 190.943 118.822 190.943C117.123 190.943 115.754 192.216 115.754 193.915C115.753 193.921 115.744 193.927 115.744 193.927L115.743 186.172C116.2 186.404 116.661 186.6 117.118 186.758C121.123 188.151 125.308 187.19 127.535 184.38C128.619 183.005 130.714 179.15 126.788 172.996C125.875 171.561 123.978 171.141 122.543 172.053C121.111 172.966 120.694 174.869 121.606 176.298C123.08 178.616 123.122 180.045 122.711 180.567C122.225 181.185 120.718 181.51 119.135 180.951C118.114 180.597 115.743 179.372 115.743 175.673C115.743 172.719 117.109 170.011 119.49 168.252C121.877 166.487 124.966 165.989 127.944 166.913C131.622 168.036 134.188 171.909 134.188 176.334C134.188 179.498 133.51 182.699 132.222 185.593L112.669 229.586L93.1158 185.593ZM115.733 255.603C114.569 256.509 113.538 257.592 112.669 258.817C111.8 257.592 110.769 256.509 109.605 255.603C110.769 254.697 111.8 253.614 112.669 252.389C113.537 253.614 114.569 254.697 115.733 255.603ZM93.1158 325.613L112.669 281.621L132.222 325.613C133.51 328.507 134.188 331.707 134.188 334.872C134.188 339.297 131.621 343.17 127.944 344.293C124.96 345.224 121.874 344.719 119.49 342.954C117.109 341.195 115.743 338.487 115.743 335.533C115.743 331.834 118.115 330.61 119.135 330.255C120.717 329.703 122.224 330.021 122.711 330.639C123.122 331.161 123.08 332.59 121.606 334.908C120.693 336.337 121.111 338.24 122.543 339.153C123.987 340.066 125.881 339.645 126.788 338.21C130.715 332.056 128.619 328.201 127.535 326.826C125.307 324.016 121.123 323.061 117.118 324.448C116.661 324.606 116.2 324.802 115.743 325.034V317.258L115.749 317.266C115.842 318.881 117.181 320.16 118.817 320.16C120.516 320.16 121.891 318.785 121.891 317.086C121.891 315.081 120.489 311.603 115.743 310.525V304.789C115.743 303.09 114.368 301.715 112.669 301.715C110.97 301.715 109.595 303.09 109.595 304.789V310.525C104.849 311.603 103.447 315.081 103.447 317.086C103.447 318.785 104.819 320.262 106.515 320.262C108.214 320.262 109.583 318.989 109.583 317.29C109.584 317.284 109.593 317.278 109.593 317.278L109.595 325.033C109.138 324.801 108.677 324.605 108.22 324.447C104.215 323.06 100.027 324.015 97.8028 326.825C96.7188 328.2 94.6238 332.055 98.5508 338.209C99.4638 339.638 101.361 340.052 102.796 339.152C104.228 338.239 104.645 336.336 103.733 334.907C102.259 332.589 102.217 331.16 102.628 330.638C103.111 330.02 104.619 329.701 106.204 330.254C107.225 330.608 109.596 331.833 109.596 335.532C109.596 338.486 108.23 341.194 105.849 342.953C103.462 344.718 100.379 345.223 97.3948 344.292C93.7168 343.169 91.1508 339.297 91.1508 334.871C91.1488 331.707 91.8278 328.507 93.1158 325.613ZM115.763 347.829C114.549 348.739 113.552 349.853 112.669 351.053C111.786 349.853 110.788 348.738 109.575 347.829C110.789 346.919 111.786 345.805 112.669 344.605C113.551 345.805 114.549 346.919 115.763 347.829ZM93.1158 370.045C91.8278 367.151 91.1498 363.95 91.1498 360.786C91.1498 356.361 93.7168 352.488 97.3938 351.365C100.381 350.44 103.464 350.939 105.848 352.704C108.229 354.463 109.595 357.171 109.595 360.125C109.595 363.824 107.223 365.049 106.203 365.403C104.618 365.955 103.111 365.637 102.627 365.019C102.216 364.497 102.258 363.067 103.732 360.75C104.645 359.321 104.227 357.418 102.795 356.505C101.36 355.604 99.4658 356.025 98.5498 357.448C94.6228 363.603 96.7188 367.457 97.8018 368.832C100.027 371.642 104.215 372.609 108.219 371.21C108.676 371.051 109.137 370.856 109.594 370.624V378.399C109.593 378.397 109.589 378.394 109.589 378.394C109.495 376.776 108.156 375.497 106.52 375.497C104.821 375.497 103.446 376.872 103.446 378.571C103.446 380.577 104.848 384.054 109.594 385.132V390.868C109.594 392.567 110.969 393.942 112.668 393.942C114.367 393.942 115.742 392.567 115.742 390.868V385.132C120.488 384.054 121.89 380.576 121.89 378.571C121.89 376.872 120.518 375.395 118.822 375.395C117.123 375.395 115.754 376.668 115.754 378.367C115.753 378.373 115.744 378.379 115.742 378.385V370.624C116.199 370.856 116.66 371.052 117.117 371.21C121.122 372.609 125.307 371.642 127.534 368.832C128.618 367.457 130.713 363.602 126.787 357.448C125.874 356.019 123.977 355.599 122.542 356.505C121.11 357.418 120.693 359.321 121.605 360.75C123.079 363.068 123.121 364.497 122.71 365.019C122.224 365.637 120.717 365.956 119.134 365.403C118.113 365.049 115.742 363.824 115.742 360.125C115.742 357.171 117.108 354.463 119.489 352.704C121.876 350.939 124.965 350.434 127.943 351.365C131.621 352.488 134.187 356.361 134.187 360.786C134.187 363.95 133.509 367.151 132.221 370.045L112.668 414.037L93.1158 370.045ZM112.669 443.268C111.8 442.043 110.769 440.96 109.605 440.054C110.769 439.148 111.8 438.065 112.669 436.84C113.538 438.065 114.569 439.148 115.733 440.054C114.569 440.96 113.537 442.043 112.669 443.268Z" fill="#FFE15A"/>
<path d="M316.229 281.909C348.46 281.909 374.589 255.78 374.589 223.549C374.589 191.318 348.46 165.189 316.229 165.189C283.997 165.189 257.869 191.318 257.869 223.549C257.869 255.78 283.997 281.909 316.229 281.909Z" fill="#FFE15A"/>
<path d="M320.603 149.132C320.603 151.549 318.643 153.509 316.226 153.509C313.809 153.509 311.849 151.549 311.849 149.132C311.849 146.715 316.226 136 316.226 136C316.226 136 320.603 146.715 320.603 149.132Z" fill="#FFE15A"/>
<path d="M311.849 297.958C311.849 295.541 313.809 293.581 316.226 293.581C318.644 293.581 320.603 295.541 320.603 297.958C320.603 300.376 316.226 311.09 316.226 311.09C316.226 311.09 311.849 300.376 311.849 297.958Z" fill="#FFE15A"/>
<path d="M390.639 227.923C388.222 227.923 386.262 225.963 386.262 223.546C386.262 221.129 388.222 219.169 390.639 219.169C393.057 219.169 403.771 223.546 403.771 223.546C403.771 223.546 393.057 227.923 390.639 227.923Z" fill="#FFE15A"/>
<path d="M241.813 219.168C244.23 219.168 246.19 221.128 246.19 223.545C246.19 225.962 244.23 227.922 241.813 227.922C239.396 227.922 228.681 223.545 228.681 223.545C228.681 223.545 239.396 219.168 241.813 219.168Z" fill="#FFE15A"/>
<path d="M371.939 174.023C370.23 175.732 367.458 175.732 365.749 174.023C364.04 172.314 364.04 169.542 365.749 167.833C367.458 166.123 378.13 161.643 378.13 161.643C378.13 161.643 373.649 172.313 371.939 174.023Z" fill="#FFE15A"/>
<path d="M260.513 273.068C262.222 271.359 264.994 271.359 266.703 273.068C268.412 274.778 268.412 277.549 266.703 279.258C264.994 280.967 254.322 285.448 254.322 285.448C254.322 285.448 258.804 274.778 260.513 273.068Z" fill="#FFE15A"/>
<path d="M365.749 279.258C364.04 277.549 364.04 274.777 365.749 273.068C367.458 271.359 370.23 271.359 371.939 273.068C373.648 274.778 378.129 285.449 378.129 285.449C378.129 285.449 367.458 280.968 365.749 279.258Z" fill="#FFE15A"/>
<path d="M266.703 167.832C268.412 169.541 268.412 172.313 266.703 174.022C264.994 175.731 262.222 175.731 260.513 174.022C258.804 172.313 254.323 161.641 254.323 161.641C254.323 161.641 264.994 166.123 266.703 167.832Z" fill="#FFE15A"/>
<path d="M291.794 153.122C292.719 155.356 291.659 157.916 289.425 158.841C287.192 159.766 284.631 158.706 283.706 156.472C282.781 154.239 282.725 142.665 282.725 142.665C282.725 142.665 290.868 150.888 291.794 153.122Z" fill="#FFE15A"/>
<path d="M340.659 293.969C339.734 291.736 340.794 289.175 343.028 288.25C345.261 287.325 347.822 288.385 348.747 290.619C349.672 292.852 349.728 304.426 349.728 304.426C349.728 304.426 341.584 296.202 340.659 293.969Z" fill="#FFE15A"/>
<path d="M386.65 199.113C384.417 200.038 381.856 198.978 380.931 196.744C380.006 194.51 381.066 191.95 383.3 191.025C385.533 190.1 397.107 190.044 397.107 190.044C397.107 190.044 388.883 198.188 386.65 199.113Z" fill="#FFE15A"/>
<path d="M245.803 247.978C248.036 247.053 250.597 248.113 251.522 250.347C252.447 252.58 251.387 255.141 249.153 256.066C246.92 256.991 235.346 257.047 235.346 257.047C235.346 257.047 243.569 248.903 245.803 247.978Z" fill="#FFE15A"/>
<path d="M348.747 156.472C347.822 158.706 345.261 159.766 343.028 158.841C340.795 157.916 339.734 155.355 340.659 153.122C341.584 150.889 349.728 142.665 349.728 142.665C349.728 142.665 349.672 154.238 348.747 156.472Z" fill="#FFE15A"/>
<path d="M283.706 290.619C284.631 288.385 287.192 287.325 289.425 288.25C291.658 289.175 292.719 291.736 291.794 293.969C290.869 296.202 282.725 304.426 282.725 304.426C282.725 304.426 282.78 292.852 283.706 290.619Z" fill="#FFE15A"/>
<path d="M383.3 256.066C381.067 255.141 380.006 252.58 380.931 250.347C381.856 248.114 384.417 247.053 386.65 247.978C388.883 248.903 397.107 257.047 397.107 257.047C397.107 257.047 385.533 256.991 383.3 256.066Z" fill="#FFE15A"/>
<path d="M249.153 191.025C251.386 191.95 252.447 194.511 251.522 196.744C250.597 198.977 248.036 200.038 245.803 199.113C243.569 198.188 235.346 190.044 235.346 190.044C235.346 190.044 246.919 190.1 249.153 191.025Z" fill="#FFE15A"/>
<path d="M306.002 149.708C306.474 152.079 304.934 154.383 302.563 154.855C300.192 155.327 297.888 153.787 297.416 151.416C296.944 149.045 299.147 137.683 299.147 137.683C299.147 137.683 305.53 147.337 306.002 149.708Z" fill="#FFE15A"/>
<path d="M326.45 297.382C325.978 295.011 327.518 292.707 329.889 292.235C332.26 291.763 334.564 293.303 335.036 295.674C335.508 298.045 333.305 309.407 333.305 309.407C333.305 309.407 326.922 299.753 326.45 297.382Z" fill="#FFE15A"/>
<path d="M390.063 213.321C387.692 213.793 385.388 212.253 384.916 209.882C384.444 207.511 385.984 205.206 388.355 204.735C390.726 204.263 402.088 206.466 402.088 206.466C402.088 206.466 392.434 212.85 390.063 213.321Z" fill="#FFE15A"/>
<path d="M242.389 233.77C244.76 233.298 247.065 234.838 247.536 237.209C248.008 239.58 246.468 241.884 244.097 242.356C241.726 242.828 230.364 240.625 230.364 240.625C230.364 240.625 240.018 234.241 242.389 233.77Z" fill="#FFE15A"/>
<path d="M361.207 164.105C359.864 166.115 357.146 166.656 355.136 165.313C353.126 163.97 352.585 161.252 353.928 159.242C355.271 157.232 364.863 150.755 364.863 150.755C364.863 150.755 362.55 162.095 361.207 164.105Z" fill="#FFE15A"/>
<path d="M271.245 282.986C272.588 280.976 275.306 280.435 277.316 281.778C279.326 283.121 279.867 285.839 278.524 287.849C277.181 289.859 267.589 296.336 267.589 296.336C267.589 296.336 269.902 284.996 271.245 282.986Z" fill="#FFE15A"/>
<path d="M375.666 268.526C373.656 267.183 373.115 264.465 374.458 262.455C375.801 260.445 378.519 259.904 380.529 261.247C382.539 262.59 389.016 272.182 389.016 272.182C389.016 272.182 377.676 269.87 375.666 268.526Z" fill="#FFE15A"/>
<path d="M256.786 178.564C258.796 179.907 259.337 182.625 257.994 184.635C256.651 186.645 253.933 187.186 251.923 185.843C249.913 184.5 243.436 174.908 243.436 174.908C243.436 174.908 254.776 177.221 256.786 178.564Z" fill="#FFE15A"/>
<path d="M278.524 159.242C279.867 161.252 279.326 163.97 277.316 165.313C275.306 166.656 272.588 166.115 271.245 164.105C269.902 162.095 267.589 150.755 267.589 150.755C267.589 150.755 277.181 157.231 278.524 159.242Z" fill="#FFE15A"/>
<path d="M353.928 287.849C352.585 285.839 353.126 283.121 355.136 281.778C357.146 280.435 359.864 280.976 361.207 282.986C362.55 284.996 364.863 296.336 364.863 296.336C364.863 296.336 355.271 289.859 353.928 287.849Z" fill="#FFE15A"/>
<path d="M380.53 185.843C378.52 187.186 375.802 186.645 374.459 184.635C373.116 182.625 373.657 179.907 375.667 178.564C377.677 177.221 389.017 174.908 389.017 174.908C389.017 174.908 382.54 184.5 380.53 185.843Z" fill="#FFE15A"/>
<path d="M251.922 261.247C253.932 259.904 256.65 260.445 257.993 262.455C259.336 264.465 258.795 267.183 256.785 268.526C254.775 269.869 243.435 272.182 243.435 272.182C243.435 272.182 249.912 262.59 251.922 261.247Z" fill="#FFE15A"/>
<path d="M335.037 151.416C334.565 153.787 332.261 155.327 329.89 154.855C327.519 154.383 325.979 152.079 326.451 149.708C326.923 147.337 333.306 137.683 333.306 137.683C333.306 137.683 335.508 149.045 335.037 151.416Z" fill="#FFE15A"/>
<path d="M297.416 295.675C297.888 293.304 300.192 291.764 302.563 292.236C304.934 292.708 306.474 295.012 306.002 297.383C305.53 299.754 299.147 309.408 299.147 309.408C299.147 309.408 296.944 298.046 297.416 295.675Z" fill="#FFE15A"/>
<path d="M388.355 242.356C385.984 241.884 384.444 239.58 384.916 237.209C385.388 234.838 387.692 233.298 390.063 233.77C392.434 234.242 402.088 240.625 402.088 240.625C402.088 240.625 390.726 242.827 388.355 242.356Z" fill="#FFE15A"/>
<path d="M244.097 204.735C246.468 205.207 248.008 207.511 247.536 209.882C247.064 212.253 244.76 213.793 242.389 213.321C240.018 212.849 230.364 206.466 230.364 206.466C230.364 206.466 241.726 204.263 244.097 204.735Z" fill="#FFE15A"/>
<path d="M453.506 238.901C451.797 238.182 449.842 239.006 449.13 240.705C449.13 240.712 449.13 240.712 449.13 240.712C449.117 240.745 449.052 240.902 448.937 241.17C446.407 247.079 441.174 255.715 435.889 263.84C440.811 247.994 445.312 231.07 445.626 229.88C446.097 228.102 445.044 226.278 443.269 225.794C441.491 225.317 439.664 226.35 439.167 228.121C436.869 236.351 432.172 247.183 427.838 256.354C428.632 246.13 428.783 236.658 428.792 235.972C428.818 234.161 427.4 232.664 425.589 232.579C423.886 232.631 422.242 233.873 422.108 235.684C417.823 294.635 361.098 321.005 355.575 323.43C352.686 323.718 339.226 325.234 327.008 329.477C325.622 329.959 324.444 330.44 323.268 330.918C322.832 330.755 322.363 330.663 321.87 330.693C284.374 333.406 254.477 318.024 232.99 285.071C216.755 260.172 211.663 234.037 211.614 233.775C211.271 231.958 209.532 230.788 207.705 231.108C205.888 231.454 204.695 233.2 205.038 235.017C205.174 235.738 207.407 247.146 213.561 262.159C205.329 249.164 199.593 233.421 197.573 225.224C197.533 225.06 197.428 224.936 197.366 224.784C197.272 224.552 197.192 224.32 197.053 224.119C196.954 223.977 196.826 223.873 196.708 223.75C196.525 223.557 196.349 223.368 196.127 223.224C195.999 223.141 195.855 223.1 195.717 223.035C195.469 222.92 195.228 222.806 194.953 222.755C194.763 222.718 194.567 222.742 194.37 222.739C194.17 222.737 193.98 222.685 193.775 222.721C193.73 222.728 193.696 222.758 193.651 222.768C193.608 222.776 193.566 222.762 193.523 222.773C193.344 222.817 193.207 222.929 193.043 222.999C192.834 223.089 192.62 223.157 192.437 223.284C192.257 223.408 192.123 223.569 191.972 223.724C191.823 223.878 191.665 224.013 191.548 224.191C191.429 224.372 191.364 224.575 191.281 224.776C191.2 224.972 191.107 225.156 191.064 225.368C191.02 225.585 191.04 225.808 191.041 226.033C191.041 226.214 190.992 226.386 191.023 226.571C191.036 226.649 191.062 226.729 191.075 226.807V226.819C191.079 226.834 191.084 226.853 191.088 226.866C193.158 239.065 198.093 251.711 202.554 261.354C195.468 253.314 189.549 244.051 187.45 238.566C187.389 238.406 187.268 238.295 187.186 238.151C187.061 237.929 186.953 237.703 186.785 237.52C186.667 237.39 186.521 237.305 186.386 237.196C186.183 237.033 185.989 236.867 185.754 236.755C185.603 236.683 185.44 236.66 185.28 236.611C185.033 236.536 184.794 236.454 184.531 236.439C184.324 236.425 184.12 236.477 183.911 236.504C183.718 236.529 183.527 236.504 183.334 236.564C183.297 236.576 183.272 236.605 183.236 236.618C183.2 236.629 183.164 236.623 183.128 236.636C182.946 236.706 182.817 236.84 182.654 236.936C182.463 237.05 182.26 237.142 182.098 237.288C181.931 237.438 181.817 237.622 181.686 237.8C181.562 237.967 181.423 238.118 181.332 238.304C181.236 238.5 181.201 238.713 181.145 238.923C181.09 239.129 181.017 239.322 181.003 239.538C180.988 239.754 181.041 239.969 181.07 240.189C181.095 240.378 181.069 240.566 181.128 240.754C184.769 252.501 193.529 266.477 200.389 276.322C194.672 271.916 190.469 267.15 189.25 265.712C189.119 265.555 188.989 265.398 188.858 265.241C187.678 263.822 185.593 263.62 184.164 264.777C182.739 265.941 182.517 268.032 183.667 269.464C183.729 269.542 183.981 269.856 184.399 270.347C189.419 276.322 194.891 281.898 199.846 286.605L193.067 283.716C191.521 283.049 189.704 283.651 188.857 285.121C188.011 286.592 188.393 288.455 189.749 289.475C190.409 289.965 202.414 298.934 212.808 304.235C211.827 304.294 210.677 304.222 209.389 304.124C207.817 303.974 206.271 305.098 205.888 306.693C205.512 308.295 206.349 309.929 207.869 310.556C208.124 310.661 211.291 311.968 215.203 313.36C214.291 313.733 213.566 314.497 213.265 315.491C212.814 316.975 213.448 318.583 214.795 319.354C215.145 319.557 219.878 322.27 225.731 324.675C225.574 324.917 225.447 325.178 225.352 325.466C224.894 326.871 225.417 328.414 226.637 329.258C227.653 329.957 250.386 345.385 276.936 345.385C278.678 345.385 280.44 345.32 282.211 345.176C284.051 345.032 285.427 343.417 285.28 341.574C285.133 339.731 283.535 338.338 281.675 338.508C264.996 339.868 248.928 333.605 239.371 328.82C240.633 328.513 241.358 328.232 241.538 328.16C243.012 327.559 243.862 326.009 243.574 324.447C243.286 322.885 241.94 321.741 240.348 321.708C236.468 321.63 231.095 319.74 226.467 317.714C228.216 316.838 229.235 316.001 229.327 315.929C230.334 315.086 230.759 313.739 230.415 312.471C230.069 311.209 229.016 310.261 227.722 310.052C226.3 309.817 224.529 309.359 222.672 308.797C224.476 307.758 225.244 306.614 225.539 306.032C226.003 305.104 226.013 304.019 225.568 303.084C225.12 302.149 224.267 301.476 223.254 301.26C222.378 301.07 221.388 300.75 220.316 300.332C220.512 300.136 220.692 299.914 220.839 299.659C221.692 298.214 221.339 296.358 220.015 295.318C219.946 295.266 217.348 293.226 213.416 289.833C214.04 289.604 214.593 289.179 214.991 288.604C215.834 287.388 215.776 285.76 214.85 284.61C214.776 284.518 212.174 281.247 208.589 276.279C209.772 277.198 210.956 278.137 212.137 278.896C212.693 279.249 213.323 279.426 213.948 279.426C214.794 279.426 215.631 279.106 216.275 278.485C216.54 278.229 216.747 277.934 216.91 277.62C218.94 279.789 221.074 281.759 223.315 283.44C223.607 283.659 223.961 283.654 224.29 283.764C225.239 285.355 226.228 286.951 227.263 288.545C247.587 319.817 276.244 336.568 310.616 337.573C307.451 339.495 304.016 341.481 298.575 343.599C297.388 344.061 296.339 344.526 295.283 344.99C294.774 345.09 294.296 345.274 293.897 345.59C284.402 349.986 280.471 354.328 278.875 357.366C277.283 360.386 278.656 363.485 280.601 365.093C281.206 365.59 281.974 365.845 282.745 365.845C283.274 365.845 283.804 365.727 284.285 365.485C285.468 364.897 286.259 363.648 286.207 362.334C286.344 362.184 286.926 361.7 288.75 361.641C290.08 361.53 292.878 361.831 296.143 362.092C299.249 362.348 302.975 362.638 306.937 362.842C304.459 365.731 301.578 369.08 301.578 369.08C300.712 370.087 300.522 371.512 301.098 372.708C301.677 373.911 302.922 374.656 304.229 374.61C306.873 374.518 308.671 374.466 309.851 374.44C310.881 375.787 312.142 376.323 312.956 376.532C315.257 377.12 317.551 376.199 319.28 375.107C320.587 376.048 321.895 376.447 322.931 376.597C325.268 376.917 327.432 376.238 328.997 375.466C330.618 376.512 332.207 376.78 333.416 376.78C333.432 376.78 333.452 376.78 333.471 376.78C336.083 376.767 338.367 375.505 339.985 374.27C341.413 375.12 342.779 375.394 343.835 375.44C346.231 375.525 348.218 374.603 349.539 373.74C354.255 374.688 358.321 372.465 361.008 370.014C362.234 370.727 363.401 370.903 364.329 370.857C366.718 370.772 368.539 369.321 369.706 368.02C375.053 368.667 378.89 367.68 381.11 365.046C382.319 363.614 382.81 362 382.944 360.529C397.78 360.444 399.123 352.345 399.231 351.345C399.329 350.436 399.051 349.528 398.46 348.828C397.872 348.129 397.019 347.697 396.107 347.645L357.212 345.305C355.584 345.187 354.133 346.279 353.754 347.868C353.747 347.894 353.084 350.365 351.008 352.339C348.216 355.004 343.721 356.413 338.83 357.158C338.849 356.71 338.785 356.254 338.614 355.81C337.947 354.084 336.006 353.247 334.286 353.895C326.256 357.011 313.255 356.619 303.084 355.911C304.645 354.635 306.522 353.374 308.023 352.549C309.291 351.85 309.971 350.418 309.703 348.993C309.508 347.958 308.76 347.238 307.857 346.774C310.686 345.347 313.004 343.967 315.204 342.625C319.022 340.285 322.63 338.082 329.2 335.8C341.882 331.394 356.557 330.054 356.704 330.041C357.037 330.015 357.364 329.93 357.675 329.806C358.198 329.59 399.593 312.248 419.097 272.235C418.842 273.444 418.567 274.549 418.27 275.517C417.76 277.164 418.584 278.923 420.172 279.59C421.401 280.106 422.797 279.838 423.741 278.962C422.509 282.211 421.394 284.767 420.486 286.277C419.558 287.813 420.006 289.807 421.499 290.801C421.849 291.03 422.225 291.187 422.61 291.278C421.1 293.488 419.57 295.579 418.044 297.495C417.027 298.77 417.086 300.587 418.149 301.79C415.528 304.535 413.204 306.797 411.439 308.235C410.285 309.17 409.909 310.732 410.439 312.066C408.736 313.04 407.337 313.726 406.366 314.02C404.738 314.51 403.738 316.151 404.045 317.825C404.205 318.707 404.702 319.453 405.388 319.943C403.342 320.492 401.103 321.022 398.671 321.505C397.301 321.779 396.246 322.871 396.02 324.25C395.798 325.629 396.451 327.002 397.664 327.695C397.769 327.754 398.912 328.401 400.661 329.146C394.186 331.754 382.625 335.16 363.655 337.03C361.818 337.213 360.471 338.854 360.655 340.691C360.835 342.528 362.423 343.803 364.316 343.698C400.328 340.135 411.448 331.121 411.902 330.735C412.941 329.866 413.353 328.447 412.941 327.153C412.666 326.297 412.065 325.604 411.294 325.205C422.799 321.584 427.738 317.576 427.996 317.361C429.258 316.315 429.575 314.504 428.745 313.086C427.908 311.667 426.166 311.053 424.646 311.667C424.218 311.83 423.535 312 422.672 312.17C430.392 306.881 438.59 300.586 442.195 297.775C442.829 297.304 443.404 296.853 443.911 296.428C445.31 295.251 445.506 293.173 444.352 291.754C443.205 290.342 441.116 290.107 439.685 291.238C439.162 291.65 438.62 292.075 438.057 292.513C436.393 293.749 434.265 295.147 431.945 296.586C440.708 286.637 449.529 275.851 452.049 272.752C452.278 272.471 452.503 272.19 452.732 271.909C453.889 270.471 453.663 268.366 452.225 267.209C450.784 266.032 448.675 266.274 447.522 267.706L447.515 267.713L447.512 267.72C447.45 267.792 447.165 268.145 446.688 268.733C444.047 271.956 441.269 275.074 438.527 277.989C447.453 261.81 454.212 245.886 455.203 243.526C455.239 243.441 455.272 243.356 455.308 243.271C456.019 241.568 455.212 239.607 453.506 238.901ZM296.635 351.723L297.549 351.841C296.428 352.888 295.516 354.064 294.791 355.276C293.201 355.148 291.76 355.036 290.63 354.985C292.187 353.968 294.191 352.864 296.635 351.723Z" fill="#FFE15A"/>
</svg>
